<svg width="800" height="600" viewBox="0 0 800 600" fill="none" xmlns="http://www.w3.org/2000/svg">
  <!-- Background elements -->
  <rect width="800" height="600" fill="#F8F9FA" opacity="0.5"/>
  
  <!-- Abstract shapes -->
  <circle cx="400" cy="300" r="250" fill="url(#grad1)" opacity="0.1"/>
  <circle cx="500" cy="200" r="150" fill="url(#grad2)" opacity="0.2"/>
  
  <!-- Document stack -->
  <rect x="300" y="200" width="200" height="250" rx="10" fill="#E0E0E0" stroke="#333333" stroke-width="2"/>
  <rect x="320" y="180" width="200" height="250" rx="10" fill="#F0F0F0" stroke="#333333" stroke-width="2"/>
  <rect x="340" y="160" width="200" height="250" rx="10" fill="#FFFFFF" stroke="#333333" stroke-width="2"/>
  
  <!-- Document lines -->
  <line x1="370" y1="200" x2="510" y2="200" stroke="#333333" stroke-width="2"/>
  <line x1="370" y1="220" x2="510" y2="220" stroke="#333333" stroke-width="2"/>
  <line x1="370" y1="240" x2="510" y2="240" stroke="#333333" stroke-width="2"/>
  <line x1="370" y1="260" x2="450" y2="260" stroke="#333333" stroke-width="2"/>
  
  <!-- Graduation cap -->
  <path d="M600 280L500 230L400 280L500 330L600 280Z" fill="#333333"/>
  <rect x="495" y="280" width="10" height="60" fill="#333333"/>
  <ellipse cx="500" cy="340" rx="30" ry="10" fill="#333333"/>
  
  <!-- Computer/laptop -->
  <rect x="200" y="350" width="180" height="120" rx="5" fill="#333333"/>
  <rect x="210" y="360" width="160" height="100" rx="2" fill="#FFFFFF"/>
  <rect x="180" y="470" width="220" height="10" rx="5" fill="#333333"/>
  
  <!-- Abstract connecting lines -->
  <path d="M300 300 Q 400 200, 500 300" stroke="#333333" stroke-width="2" fill="none" stroke-dasharray="5,5"/>
  <path d="M400 350 Q 500 400, 600 350" stroke="#333333" stroke-width="2" fill="none" stroke-dasharray="5,5"/>
  
  <!-- Gradients -->
  <defs>
    <linearGradient id="grad1" x1="0%" y1="0%" x2="100%" y2="100%">
      <stop offset="0%" style="stop-color:#000000;stop-opacity:1" />
      <stop offset="100%" style="stop-color:#333333;stop-opacity:1" />
    </linearGradient>
    <linearGradient id="grad2" x1="0%" y1="0%" x2="100%" y2="100%">
      <stop offset="0%" style="stop-color:#333333;stop-opacity:1" />
      <stop offset="100%" style="stop-color:#666666;stop-opacity:1" />
    </linearGradient>
  </defs>
</svg>